<svg width="200" height="200" viewBox="0 0 200 200" fill="none" xmlns="http://www.w3.org/2000/svg">
<g clip-path="url(#clip0_4_4)">
<circle cx="100" cy="100" r="100" fill="#111827"/>
<g clip-path="url(#clip1_4_4)">
<path d="M100.5 91C109.972 91 119.056 87.2598 125.754 80.6023C132.452 73.9448 136.214 64.9152 136.214 55.5C136.214 46.0848 132.452 37.0553 125.754 30.3977C119.056 23.7402 109.972 20 100.5 20C91.028 20 81.9439 23.7402 75.2462 30.3977C68.5485 37.0553 64.7857 46.0848 64.7857 55.5C64.7857 64.9152 68.5485 73.9448 75.2462 80.6023C81.9439 87.2598 91.028 91 100.5 91ZM87.7489 104.312C60.2656 104.312 38 126.445 38 153.763C38 158.311 41.7109 162 46.2868 162H154.713C159.289 162 163 158.311 163 153.763C163 126.445 140.734 104.312 113.251 104.312H87.7489Z" fill="#3B4452"/>
</g>
</g>
<defs>
<clipPath id="clip0_4_4">
<rect width="200" height="200" fill="white"/>
</clipPath>
<clipPath id="clip1_4_4">
<rect width="125" height="142" fill="white" transform="translate(38 20)"/>
</clipPath>
</defs>
</svg>
